<?xml version="1.0" encoding="UTF-8"?>
<svg width="177px" height="40px" viewBox="0 0 177 40" version="1.1" xmlns="http://www.w3.org/2000/svg" xmlns:xlink="http://www.w3.org/1999/xlink">
    <title>kubed</title>
    <g id="Color-Palette" stroke="none" stroke-width="1" fill="none" fill-rule="evenodd">
        <g transform="translate(-20.000000, -12.000000)" id="编组-7">
            <g transform="translate(20.000000, 12.000000)">
                <g id="编组">
                    <path d="M46.632,14 L46.632,11.018 L47.458,10.052 L50.58,14 L52.61,14 L48.522,9.058 L52.316,4.662 L50.286,4.662 L46.632,9.1 L46.632,4.662 L44.994,4.662 L44.994,14 L46.632,14 Z M55.83,14.168 C56.894,14.168 57.734,13.636 58.21,13.104 L58.21,14 L59.68,14 L59.68,7.238 L58.21,7.238 L58.21,11.984 C57.874,12.432 57.23,12.866 56.488,12.866 C55.648,12.866 55.116,12.53 55.116,11.48 L55.116,7.238 L53.646,7.238 L53.646,12.026 C53.646,13.398 54.374,14.168 55.83,14.168 Z M65.224,14.168 C66.96,14.168 68.234,12.852 68.234,10.612 C68.234,8.428 66.974,7.07 65.224,7.07 C64.384,7.07 63.6,7.448 63.054,8.176 L63.054,4.662 L61.584,4.662 L61.584,14 L63.054,14 L63.054,13.076 C63.572,13.748 64.356,14.168 65.224,14.168 Z M64.804,12.866 C64.104,12.866 63.39,12.474 63.054,11.97 L63.054,9.282 C63.39,8.778 64.104,8.372 64.804,8.372 C65.966,8.372 66.708,9.31 66.708,10.612 C66.708,11.928 65.966,12.866 64.804,12.866 Z M72.854,14.168 C73.918,14.168 74.912,13.818 75.598,13.174 L74.926,12.208 C74.436,12.698 73.666,12.964 72.994,12.964 C71.72,12.964 70.964,12.11 70.852,11.102 L76.06,11.102 L76.06,10.738 C76.06,8.61 74.772,7.07 72.742,7.07 C70.74,7.07 69.312,8.652 69.312,10.612 C69.312,12.754 70.81,14.168 72.854,14.168 Z M74.646,10.052 L70.838,10.052 C70.894,9.24 71.482,8.274 72.728,8.274 C74.058,8.274 74.604,9.254 74.646,10.052 Z M81.044,14 C83.956,14 85.916,12.082 85.916,9.324 C85.916,6.594 83.956,4.662 81.03,4.662 L77.558,4.662 L77.558,14 L81.044,14 Z M81.03,12.558 L79.196,12.558 L79.196,6.104 L81.044,6.104 C83.116,6.104 84.236,7.532 84.236,9.324 C84.236,11.102 83.06,12.558 81.03,12.558 Z M90.592,14.168 C91.656,14.168 92.65,13.818 93.336,13.174 L92.664,12.208 C92.174,12.698 91.404,12.964 90.732,12.964 C89.458,12.964 88.702,12.11 88.59,11.102 L93.798,11.102 L93.798,10.738 C93.798,8.61 92.51,7.07 90.48,7.07 C88.478,7.07 87.05,8.652 87.05,10.612 C87.05,12.754 88.548,14.168 90.592,14.168 Z M92.384,10.052 L88.576,10.052 C88.632,9.24 89.22,8.274 90.466,8.274 C91.796,8.274 92.342,9.254 92.384,10.052 Z M97.578,14.168 C99.398,14.168 100.392,13.258 100.392,12.054 C100.392,9.366 96.304,10.262 96.304,9.072 C96.304,8.596 96.78,8.232 97.55,8.232 C98.404,8.232 99.146,8.596 99.552,9.044 L100.168,8.008 C99.566,7.476 98.698,7.07 97.55,7.07 C95.842,7.07 94.89,8.008 94.89,9.114 C94.89,11.718 98.978,10.766 98.978,12.096 C98.978,12.628 98.516,12.992 97.634,12.992 C96.766,12.992 95.828,12.544 95.352,12.054 L94.68,13.104 C95.38,13.79 96.416,14.168 97.578,14.168 Z M102.604,6.412 C103.108,6.412 103.514,6.006 103.514,5.502 C103.514,4.998 103.108,4.592 102.604,4.592 C102.1,4.592 101.694,4.998 101.694,5.502 C101.694,6.006 102.1,6.412 102.604,6.412 Z M103.332,14 L103.332,7.238 L101.862,7.238 L101.862,14 L103.332,14 Z M107.994,16.744 C109.646,16.744 111.466,16.086 111.466,13.65 L111.466,7.238 L109.996,7.238 L109.996,8.176 C109.45,7.448 108.68,7.07 107.826,7.07 C106.076,7.07 104.83,8.344 104.83,10.542 C104.83,12.768 106.104,14.014 107.826,14.014 C108.708,14.014 109.478,13.566 109.996,12.88 L109.996,13.65 C109.996,15.092 108.96,15.54 107.994,15.54 C107.098,15.54 106.398,15.302 105.838,14.672 L105.152,15.736 C105.992,16.492 106.846,16.744 107.994,16.744 Z M108.26,12.698 C107.084,12.698 106.342,11.844 106.342,10.542 C106.342,9.24 107.084,8.372 108.26,8.372 C108.946,8.372 109.66,8.778 109.996,9.268 L109.996,11.802 C109.66,12.292 108.946,12.698 108.26,12.698 Z M114.84,14 L114.84,9.268 C115.19,8.82 115.834,8.372 116.576,8.372 C117.402,8.372 117.948,8.708 117.948,9.772 L117.948,14 L119.418,14 L119.418,9.24 C119.418,7.854 118.69,7.07 117.234,7.07 C116.17,7.07 115.288,7.616 114.84,8.148 L114.84,7.238 L113.37,7.238 L113.37,14 L114.84,14 Z" id="KubeDesign" fill="#242E42" fill-rule="nonzero"></path>
                    <path d="M45.932,33 L45.932,29.82 L48.152,29.82 C49.748,29.82 50.66,28.716 50.66,27.408 C50.66,26.1 49.76,24.996 48.152,24.996 L44.936,24.996 L44.936,33 L45.932,33 Z M48.032,28.932 L45.932,28.932 L45.932,25.884 L48.032,25.884 C48.98,25.884 49.628,26.508 49.628,27.408 C49.628,28.308 48.98,28.932 48.032,28.932 Z M52.844,33 L52.844,24.996 L51.944,24.996 L51.944,33 L52.844,33 Z M56.348,33.144 C57.128,33.144 57.8,32.868 58.268,32.34 L58.268,33 L59.168,33 L59.168,29.016 C59.168,27.612 58.16,27.06 56.924,27.06 C55.976,27.06 55.232,27.372 54.608,28.02 L55.028,28.644 C55.544,28.08 56.108,27.84 56.804,27.84 C57.644,27.84 58.268,28.284 58.268,29.052 L58.268,30.096 C57.8,29.568 57.14,29.316 56.348,29.316 C55.364,29.316 54.332,29.916 54.332,31.224 C54.332,32.484 55.376,33.144 56.348,33.144 Z M56.684,32.496 C55.832,32.496 55.244,31.968 55.244,31.224 C55.244,30.492 55.832,29.964 56.684,29.964 C57.308,29.964 57.92,30.204 58.268,30.672 L58.268,31.776 C57.92,32.256 57.308,32.496 56.684,32.496 Z M62.456,33.144 C62.972,33.144 63.296,32.988 63.524,32.772 L63.26,32.088 C63.14,32.22 62.912,32.34 62.648,32.34 C62.264,32.34 62.072,32.028 62.072,31.596 L62.072,27.996 L63.248,27.996 L63.248,27.204 L62.072,27.204 L62.072,25.62 L61.16,25.62 L61.16,27.204 L60.2,27.204 L60.2,27.996 L61.16,27.996 L61.16,31.788 C61.16,32.652 61.592,33.144 62.456,33.144 Z M65.66,33 L65.66,27.996 L66.836,27.996 L66.836,27.204 L65.66,27.204 L65.66,26.76 C65.66,26.016 65.984,25.62 66.584,25.62 C66.872,25.62 67.1,25.728 67.292,25.896 L67.664,25.32 C67.304,24.984 66.908,24.876 66.44,24.876 C65.42,24.876 64.76,25.572 64.76,26.76 L64.76,27.204 L63.8,27.204 L63.8,27.996 L64.76,27.996 L64.76,33 L65.66,33 Z M70.448,33.144 C72.212,33.144 73.316,31.776 73.316,30.096 C73.316,28.416 72.212,27.06 70.448,27.06 C68.684,27.06 67.58,28.416 67.58,30.096 C67.58,31.776 68.684,33.144 70.448,33.144 Z M70.448,32.34 C69.212,32.34 68.528,31.284 68.528,30.096 C68.528,28.92 69.212,27.864 70.448,27.864 C71.684,27.864 72.368,28.92 72.368,30.096 C72.368,31.284 71.684,32.34 70.448,32.34 Z M75.68,33 L75.68,28.896 C75.944,28.428 76.7,27.972 77.264,27.972 C77.396,27.972 77.504,27.984 77.612,27.996 L77.612,27.072 C76.82,27.072 76.148,27.528 75.68,28.128 L75.68,27.204 L74.78,27.204 L74.78,33 L75.68,33 Z M79.64,33 L79.64,28.764 C79.952,28.296 80.576,27.864 81.164,27.864 C81.932,27.864 82.232,28.332 82.232,29.064 L82.232,33 L83.132,33 L83.132,28.752 C83.432,28.284 84.068,27.864 84.668,27.864 C85.424,27.864 85.736,28.332 85.736,29.064 L85.736,33 L86.636,33 L86.636,28.812 C86.636,27.648 86.072,27.06 85.016,27.06 C84.176,27.06 83.396,27.612 83.072,28.14 C82.904,27.54 82.4,27.06 81.524,27.06 C80.66,27.06 79.892,27.672 79.64,28.044 L79.64,27.204 L78.74,27.204 L78.74,33 L79.64,33 Z M94.316,33 C96.812,33 98.42,31.284 98.42,29.004 C98.42,26.736 96.812,24.996 94.316,24.996 L91.58,24.996 L91.58,33 L94.316,33 Z M94.316,32.112 L92.576,32.112 L92.576,25.884 L94.316,25.884 C96.296,25.884 97.388,27.276 97.388,29.004 C97.388,30.72 96.26,32.112 94.316,32.112 Z M102.572,33.144 C103.508,33.144 104.288,32.82 104.876,32.244 L104.444,31.656 C103.976,32.136 103.316,32.4 102.644,32.4 C101.396,32.4 100.64,31.488 100.568,30.396 L105.248,30.396 L105.248,30.168 C105.248,28.428 104.216,27.06 102.464,27.06 C100.808,27.06 99.608,28.416 99.608,30.096 C99.608,31.908 100.844,33.144 102.572,33.144 Z M104.36,29.724 L100.556,29.724 C100.604,28.848 101.216,27.804 102.452,27.804 C103.772,27.804 104.348,28.872 104.36,29.724 Z M108.548,33.144 C110.036,33.144 110.816,32.364 110.816,31.392 C110.816,29.136 107.228,29.964 107.228,28.704 C107.228,28.188 107.72,27.792 108.512,27.792 C109.268,27.792 109.892,28.104 110.24,28.524 L110.66,27.9 C110.204,27.432 109.508,27.06 108.512,27.06 C107.132,27.06 106.364,27.816 106.364,28.728 C106.364,30.876 109.952,30.012 109.952,31.416 C109.952,31.992 109.46,32.412 108.572,32.412 C107.78,32.412 107.048,32.028 106.664,31.584 L106.208,32.232 C106.796,32.844 107.588,33.144 108.548,33.144 Z M112.736,26.376 C113.072,26.376 113.336,26.112 113.336,25.776 C113.336,25.44 113.072,25.164 112.736,25.164 C112.4,25.164 112.124,25.44 112.124,25.776 C112.124,26.112 112.4,26.376 112.736,26.376 Z M113.18,33 L113.18,27.204 L112.28,27.204 L112.28,33 L113.18,33 Z M117.308,35.352 C118.724,35.352 120.08,34.752 120.08,32.916 L120.08,27.204 L119.18,27.204 L119.18,28.08 C118.712,27.444 118.004,27.06 117.224,27.06 C115.7,27.06 114.644,28.212 114.644,30.072 C114.644,31.944 115.712,33.072 117.224,33.072 C118.04,33.072 118.748,32.628 119.18,32.04 L119.18,32.916 C119.18,34.14 118.268,34.608 117.308,34.608 C116.48,34.608 115.904,34.392 115.424,33.828 L114.968,34.476 C115.664,35.16 116.336,35.352 117.308,35.352 Z M117.452,32.268 C116.276,32.268 115.58,31.344 115.58,30.072 C115.58,28.788 116.276,27.864 117.452,27.864 C118.16,27.864 118.856,28.296 119.18,28.788 L119.18,31.332 C118.856,31.836 118.16,32.268 117.452,32.268 Z M122.78,33 L122.78,28.764 C123.128,28.296 123.788,27.864 124.496,27.864 C125.276,27.864 125.804,28.176 125.804,29.208 L125.804,33 L126.692,33 L126.692,28.932 C126.692,27.672 126.056,27.06 124.856,27.06 C123.98,27.06 123.188,27.552 122.78,28.044 L122.78,27.204 L121.88,27.204 L121.88,33 L122.78,33 Z M134.24,33.144 C136.4,33.144 137.192,31.944 137.192,30.792 C137.192,27.804 132.452,28.836 132.452,27.036 C132.452,26.28 133.148,25.764 134.096,25.764 C134.972,25.764 135.812,26.052 136.412,26.724 L137.012,25.992 C136.34,25.284 135.392,24.864 134.18,24.864 C132.596,24.864 131.42,25.776 131.42,27.096 C131.42,29.952 136.16,28.8 136.16,30.864 C136.16,31.488 135.704,32.256 134.276,32.256 C133.148,32.256 132.284,31.704 131.768,31.104 L131.168,31.872 C131.828,32.616 132.86,33.144 134.24,33.144 Z M138.98,35.352 C139.748,35.34 140.336,35.016 140.684,34.176 L143.588,27.204 L142.616,27.204 L140.684,31.956 L138.764,27.204 L137.78,27.204 L140.204,33.06 L139.82,33.936 C139.616,34.416 139.352,34.548 138.956,34.548 C138.812,34.548 138.596,34.512 138.464,34.452 L138.332,35.268 C138.488,35.316 138.788,35.352 138.98,35.352 Z M146.372,33.144 C147.86,33.144 148.64,32.364 148.64,31.392 C148.64,29.136 145.052,29.964 145.052,28.704 C145.052,28.188 145.544,27.792 146.336,27.792 C147.092,27.792 147.716,28.104 148.064,28.524 L148.484,27.9 C148.028,27.432 147.332,27.06 146.336,27.06 C144.956,27.06 144.188,27.816 144.188,28.728 C144.188,30.876 147.776,30.012 147.776,31.416 C147.776,31.992 147.284,32.412 146.396,32.412 C145.604,32.412 144.872,32.028 144.488,31.584 L144.032,32.232 C144.62,32.844 145.412,33.144 146.372,33.144 Z M151.58,33.144 C152.096,33.144 152.42,32.988 152.648,32.772 L152.384,32.088 C152.264,32.22 152.036,32.34 151.772,32.34 C151.388,32.34 151.196,32.028 151.196,31.596 L151.196,27.996 L152.372,27.996 L152.372,27.204 L151.196,27.204 L151.196,25.62 L150.284,25.62 L150.284,27.204 L149.324,27.204 L149.324,27.996 L150.284,27.996 L150.284,31.788 C150.284,32.652 150.716,33.144 151.58,33.144 Z M156.26,33.144 C157.196,33.144 157.976,32.82 158.564,32.244 L158.132,31.656 C157.664,32.136 157.004,32.4 156.332,32.4 C155.084,32.4 154.328,31.488 154.256,30.396 L158.936,30.396 L158.936,30.168 C158.936,28.428 157.904,27.06 156.152,27.06 C154.496,27.06 153.296,28.416 153.296,30.096 C153.296,31.908 154.532,33.144 156.26,33.144 Z M158.048,29.724 L154.244,29.724 C154.292,28.848 154.904,27.804 156.14,27.804 C157.46,27.804 158.036,28.872 158.048,29.724 Z M161.288,33 L161.288,28.764 C161.6,28.296 162.224,27.864 162.812,27.864 C163.58,27.864 163.88,28.332 163.88,29.064 L163.88,33 L164.78,33 L164.78,28.752 C165.08,28.284 165.716,27.864 166.316,27.864 C167.072,27.864 167.384,28.332 167.384,29.064 L167.384,33 L168.284,33 L168.284,28.812 C168.284,27.648 167.72,27.06 166.664,27.06 C165.824,27.06 165.044,27.612 164.72,28.14 C164.552,27.54 164.048,27.06 163.172,27.06 C162.308,27.06 161.54,27.672 161.288,28.044 L161.288,27.204 L160.388,27.204 L160.388,33 L161.288,33 Z" id="PlatformDesignSystem" fill="#5F708A" fill-rule="nonzero"></path>
                    <g id="Glyph/006.Brand/011.Kubesphere/Black" fill="#242E42">
                        <g id="Group-13" transform="translate(6.666667, 5.000000)">
                            <polygon id="Fill-1" points="22.3910834 23.4065165 15.9375 19.6875 15.9375 27.1258594"></polygon>
                            <polygon id="Fill-2" points="22.3910834 5.5940165 15.9375 1.875 15.9375 9.313033"></polygon>
                            <polygon id="Fill-3" points="12.6272587 2.07241631e-13 -1.03620816e-13 7.27680491 -1.03620816e-13 21.8672948 12.6272587 29.143447 12.6272587 18.0732126 6.55135509 14.5718867 12.6272587 11.0705607"></polygon>
                            <polygon id="Fill-4" points="13.125 14.7653819 25.733293 22.0307637 25.733293 7.5"></polygon>
                        </g>
                    </g>
                </g>
                <g id="编组-6" transform="translate(129.000000, 0.000000)">
                    <rect id="矩形" fill="#D1D7DF" x="0" y="0" width="48" height="20" rx="2"></rect>
                    <path d="M9.62,13 L10.208,11.452 L13.88,11.452 L14.468,13 L16.064,13 L12.92,4.996 L11.168,4.996 L8.024,13 L9.62,13 Z M13.484,10.216 L10.604,10.216 L12.044,6.4 L13.484,10.216 Z M18.152,13 L18.152,4.996 L16.892,4.996 L16.892,13 L18.152,13 Z M21.044,15.208 L21.044,12.196 C21.524,12.808 22.172,13.144 22.904,13.144 C24.404,13.144 25.472,12.004 25.472,10.096 C25.472,8.188 24.404,7.06 22.904,7.06 C22.148,7.06 21.476,7.42 21.044,7.996 L21.044,7.204 L19.784,7.204 L19.784,15.208 L21.044,15.208 Z M22.532,12.028 C21.944,12.028 21.32,11.668 21.044,11.236 L21.044,8.944 C21.332,8.512 21.944,8.176 22.532,8.176 C23.528,8.176 24.176,8.968 24.176,10.096 C24.176,11.224 23.528,12.028 22.532,12.028 Z M28.004,13 L28.004,8.944 C28.292,8.56 28.844,8.176 29.492,8.176 C30.2,8.176 30.656,8.44 30.656,9.352 L30.656,13 L31.916,13 L31.916,8.896 C31.916,7.708 31.292,7.06 30.044,7.06 C29.132,7.06 28.388,7.528 28.004,7.984 L28.004,4.996 L26.744,4.996 L26.744,13 L28.004,13 Z M35.216,13.144 C35.984,13.144 36.668,12.868 37.1,12.364 L37.1,13 L38.36,13 L38.36,9.148 C38.36,7.6 37.232,7.06 35.936,7.06 C35.012,7.06 34.172,7.348 33.5,7.996 L34.028,8.872 C34.52,8.368 35.096,8.128 35.744,8.128 C36.536,8.128 37.1,8.536 37.1,9.208 L37.1,10.072 C36.668,9.58 36.008,9.328 35.216,9.328 C34.268,9.328 33.212,9.88 33.212,11.224 C33.212,12.496 34.28,13.144 35.216,13.144 Z M35.72,12.28 C35.012,12.28 34.472,11.872 34.472,11.236 C34.472,10.612 35.012,10.192 35.72,10.192 C36.26,10.192 36.8,10.396 37.1,10.792 L37.1,11.68 C36.8,12.076 36.26,12.28 35.72,12.28 Z" id="Alpha" fill="#242E42" fill-rule="nonzero"></path>
                </g>
            </g>
        </g>
    </g>
</svg>